<svg width="375" height="44" viewBox="0 0 375 44" fill="none" xmlns="http://www.w3.org/2000/svg">
<path opacity="0.35" d="M332.502 20C332.502 18.8034 333.472 17.8334 334.669 17.8334H351.335C352.532 17.8334 353.502 18.8034 353.502 20V26C353.502 27.1967 352.532 28.1667 351.335 28.1667H334.669C333.472 28.1667 332.502 27.1967 332.502 26V20Z" stroke="white"/>
<path opacity="0.4" d="M355.002 21V25C355.807 24.6612 356.33 23.8731 356.33 23C356.33 22.1269 355.807 21.3388 355.002 21Z" fill="white"/>
<path d="M334.002 20.4334C334.002 19.8259 334.494 19.3334 335.102 19.3334H350.902C351.509 19.3334 352.002 19.8259 352.002 20.4334V25.5667C352.002 26.1742 351.509 26.6667 350.902 26.6667H335.102C334.494 26.6667 334.002 26.1742 334.002 25.5667V20.4334Z" fill="white"/>
<path fill-rule="evenodd" clip-rule="evenodd" d="M319.332 19.6081C321.548 19.6082 323.679 20.4597 325.285 21.9865C325.406 22.1043 325.599 22.1029 325.718 21.9831L326.874 20.8165C326.935 20.7557 326.968 20.6735 326.968 20.5879C326.967 20.5023 326.933 20.4205 326.872 20.3605C322.656 16.3209 316.007 16.3209 311.792 20.3605C311.731 20.4204 311.696 20.5023 311.695 20.5878C311.695 20.6734 311.728 20.7557 311.789 20.8165L312.945 21.9831C313.064 22.103 313.257 22.1045 313.378 21.9865C314.984 20.4596 317.116 19.6081 319.332 19.6081ZM319.332 23.4038C320.549 23.4037 321.723 23.8563 322.626 24.6735C322.748 24.7895 322.94 24.7869 323.059 24.6678L324.214 23.5011C324.275 23.4399 324.308 23.3569 324.308 23.2707C324.307 23.1844 324.271 23.1021 324.209 23.0421C321.461 20.4858 317.205 20.4858 314.457 23.0421C314.395 23.1021 314.359 23.1844 314.359 23.2707C314.358 23.357 314.392 23.44 314.453 23.5011L315.607 24.6678C315.726 24.7869 315.918 24.7895 316.04 24.6735C316.942 23.8568 318.115 23.4043 319.332 23.4038ZM321.645 25.9576C321.647 26.0441 321.613 26.1275 321.551 26.1881L319.554 28.2038C319.495 28.263 319.415 28.2964 319.332 28.2964C319.249 28.2964 319.169 28.263 319.11 28.2038L317.113 26.1881C317.051 26.1275 317.017 26.0441 317.019 25.9576C317.021 25.871 317.058 25.7891 317.122 25.7311C318.398 24.6523 320.266 24.6523 321.542 25.7311C321.606 25.7892 321.643 25.8711 321.645 25.9576Z" fill="white"/>
<path fill-rule="evenodd" clip-rule="evenodd" d="M305.668 17.6667H304.668C304.116 17.6667 303.668 18.1145 303.668 18.6667V27.3334C303.668 27.8857 304.116 28.3334 304.668 28.3334H305.668C306.22 28.3334 306.668 27.8857 306.668 27.3334V18.6667C306.668 18.1145 306.22 17.6667 305.668 17.6667ZM300.001 20.0001H301.001C301.554 20.0001 302.001 20.4478 302.001 21.0001V27.3334C302.001 27.8857 301.554 28.3334 301.001 28.3334H300.001C299.449 28.3334 299.001 27.8857 299.001 27.3334V21.0001C299.001 20.4478 299.449 20.0001 300.001 20.0001ZM296.335 22.3334H295.335C294.782 22.3334 294.335 22.7811 294.335 23.3334V27.3334C294.335 27.8857 294.782 28.3334 295.335 28.3334H296.335C296.887 28.3334 297.335 27.8857 297.335 27.3334V23.3334C297.335 22.7811 296.887 22.3334 296.335 22.3334ZM291.668 24.3334H290.668C290.116 24.3334 289.668 24.7811 289.668 25.3334V27.3334C289.668 27.8857 290.116 28.3334 290.668 28.3334H291.668C292.22 28.3334 292.668 27.8857 292.668 27.3334V25.3334C292.668 24.7811 292.22 24.3334 291.668 24.3334Z" fill="white"/>
<path d="M37.5146 17.1675C35.2222 17.1675 33.5889 18.7349 33.5889 20.8809V20.8955C33.5889 22.9023 35.0098 24.3818 37.0386 24.3818C38.4888 24.3818 39.4116 23.6421 39.7998 22.8071H39.9463C39.9463 22.8877 39.939 22.9683 39.939 23.0488C39.8584 25.0703 39.1479 26.7109 37.4707 26.7109C36.5405 26.7109 35.8887 26.2275 35.6104 25.4878L35.5884 25.4146H33.728L33.7427 25.4951C34.0796 27.1138 35.5298 28.2637 37.4707 28.2637C40.1294 28.2637 41.7334 26.1543 41.7334 22.5947V22.5801C41.7334 18.7715 39.7705 17.1675 37.5146 17.1675ZM37.5073 22.9316C36.3062 22.9316 35.4346 22.0527 35.4346 20.8296V20.8149C35.4346 19.6357 36.3647 18.7056 37.5293 18.7056C38.7012 18.7056 39.6167 19.6504 39.6167 20.8589V20.8735C39.6167 22.0674 38.7012 22.9316 37.5073 22.9316ZM44.5586 21.1519C45.2324 21.1519 45.7231 20.6392 45.7231 19.9946C45.7231 19.3428 45.2324 18.8374 44.5586 18.8374C43.8921 18.8374 43.394 19.3428 43.394 19.9946C43.394 20.6392 43.8921 21.1519 44.5586 21.1519ZM44.5586 26.5864C45.2324 26.5864 45.7231 26.0811 45.7231 25.4292C45.7231 24.7773 45.2324 24.272 44.5586 24.272C43.8921 24.272 43.394 24.7773 43.394 25.4292C43.394 26.0811 43.8921 26.5864 44.5586 26.5864ZM52.5107 28H54.3198V25.9712H55.7407V24.4111H54.3198V17.4312H51.6465C50.2109 19.6138 48.7095 22.0454 47.3398 24.4258V25.9712H52.5107V28ZM49.0977 24.4551V24.3452C50.123 22.5508 51.3462 20.5952 52.4302 18.9399H52.54V24.4551H49.0977ZM59.6206 28H61.5103V17.4312H59.6279L56.8667 19.3721V21.1519L59.4961 19.2915H59.6206V28Z" fill="white"/>
</svg>
