<svg width="133" height="31" viewBox="0 0 133 31" fill="none" xmlns="http://www.w3.org/2000/svg">
<rect y="26" width="133" height="5" rx="2.5" fill="white" fill-opacity="0.2"/>
<path d="M34.4033 10.0288H38.8223C39.4277 10.0288 39.7256 9.73096 39.7256 9.07178V5.65869C39.7256 5.06787 39.4814 4.76514 38.9785 4.71631V3.55908C38.9785 1.81592 37.8262 0.971191 36.6152 0.971191C35.3994 0.971191 34.2471 1.81592 34.2471 3.55908V4.73584C33.7832 4.80908 33.5 5.10693 33.5 5.65869V9.07178C33.5 9.73096 33.7979 10.0288 34.4033 10.0288ZM35.0381 3.46631C35.0381 2.3335 35.7607 1.72803 36.6152 1.72803C37.4648 1.72803 38.1875 2.3335 38.1875 3.46631V4.70654L35.0381 4.71631V3.46631Z" fill="#9B9BA1"/>
<path d="M43.7713 10V4.45507H42.8749V3.57109H43.7713V2.85402C43.7713 1.6177 44.3462 1.03044 45.533 1.03044C45.7741 1.03044 46.0337 1.05517 46.1883 1.07989V1.9515C46.0585 1.93296 45.8792 1.91441 45.6999 1.91441C45.1189 1.91441 44.8407 2.2235 44.8407 2.86021V3.57109H46.1574V4.45507H44.8469V10H43.7713ZM47.4523 10V3.57109H48.5279V10H47.4523ZM47.9901 2.48931C47.6254 2.48931 47.3225 2.18641 47.3225 1.82169C47.3225 1.45079 47.6254 1.15407 47.9901 1.15407C48.361 1.15407 48.6639 1.45079 48.6639 1.82169C48.6639 2.18641 48.361 2.48931 47.9901 2.48931ZM52.722 9.10366C53.8409 9.10366 54.5889 8.17642 54.5889 6.76082C54.5889 5.34522 53.8409 4.40562 52.722 4.40562C51.6155 4.40562 50.8923 5.3205 50.8923 6.76082C50.8923 8.20114 51.6155 9.10366 52.722 9.10366ZM52.7591 12.4232C51.3435 12.4232 50.2246 11.6258 50.0454 10.5316H51.1519C51.3621 11.1189 51.9988 11.5083 52.8024 11.5083C53.9151 11.5083 54.5889 10.8654 54.5889 9.90728V8.89349H54.5642C54.1685 9.59201 53.4082 10.0495 52.5057 10.0495C50.8675 10.0495 49.7919 8.75749 49.7919 6.76082C49.7919 4.74561 50.8675 3.45982 52.5304 3.45982C53.4391 3.45982 54.1933 3.9049 54.6198 4.65288H54.6383V3.57109H55.6645V9.87019C55.6645 11.4032 54.5332 12.4232 52.7591 12.4232ZM57.1943 10V3.57109H58.2081V4.59725H58.2328C58.5357 3.91727 59.191 3.45982 60.0564 3.45982C60.9342 3.45982 61.5833 3.9049 61.8615 4.68379H61.8862C62.2447 3.91727 62.9989 3.45982 63.9014 3.45982C65.1748 3.45982 65.997 4.28816 65.997 5.56158V10H64.9214V5.80885C64.9214 4.93105 64.433 4.4118 63.5861 4.4118C62.7331 4.4118 62.1335 5.04232 62.1335 5.91394V10H61.0578V5.6914C61.0578 4.91869 60.5386 4.4118 59.7412 4.4118C58.8881 4.4118 58.2699 5.07941 58.2699 5.96957V10H57.1943ZM69.6162 9.19639C70.63 9.19639 71.4089 8.4855 71.4089 7.55825V7.03281L69.6904 7.1379C68.825 7.19354 68.3304 7.5768 68.3304 8.1826C68.3304 8.79458 68.8435 9.19639 69.6162 9.19639ZM69.3751 10.1113C68.0955 10.1113 67.2363 9.33856 67.2363 8.1826C67.2363 7.08227 68.0832 6.38992 69.5668 6.30338L71.4089 6.19829V5.66049C71.4089 4.87542 70.8896 4.40562 69.9995 4.40562C69.1711 4.40562 68.6519 4.79506 68.5159 5.42559H67.4774C67.5515 4.31289 68.5035 3.45982 70.0242 3.45982C71.5325 3.45982 72.4845 4.2758 72.4845 5.5554V10H71.4645V8.89349H71.4398C71.0565 9.6291 70.2406 10.1113 69.3751 10.1113ZM74.8859 10.0618C74.4903 10.0618 74.1812 9.75273 74.1812 9.35711C74.1812 8.96148 74.4903 8.6524 74.8859 8.6524C75.2816 8.6524 75.5906 8.96148 75.5906 9.35711C75.5906 9.75273 75.2816 10.0618 74.8859 10.0618ZM82.2883 5.67903H81.2374C81.0829 4.98051 80.5389 4.40562 79.5931 4.40562C78.4804 4.40562 77.7263 5.32668 77.7263 6.78555C77.7263 8.2815 78.4928 9.16548 79.6055 9.16548C80.4833 9.16548 81.0582 8.70186 81.2436 7.92915H82.3007C82.1338 9.20875 81.0582 10.1113 79.5993 10.1113C77.819 10.1113 76.6321 8.8564 76.6321 6.78555C76.6321 4.75797 77.8128 3.45982 79.5869 3.45982C81.1942 3.45982 82.1523 4.52307 82.2883 5.67903ZM86.0806 10.1113C84.3003 10.1113 83.1011 8.83167 83.1011 6.78555C83.1011 4.73324 84.3003 3.45982 86.0806 3.45982C87.8548 3.45982 89.054 4.73324 89.054 6.78555C89.054 8.83167 87.8548 10.1113 86.0806 10.1113ZM86.0806 9.16548C87.2181 9.16548 87.9599 8.30005 87.9599 6.78555C87.9599 5.27104 87.2181 4.40562 86.0806 4.40562C84.9432 4.40562 84.1952 5.27104 84.1952 6.78555C84.1952 8.30005 84.9432 9.16548 86.0806 9.16548ZM90.2686 10V3.57109H91.2824V4.59725H91.3071C91.61 3.91727 92.2652 3.45982 93.1307 3.45982C94.0085 3.45982 94.6575 3.9049 94.9357 4.68379H94.9604C95.319 3.91727 96.0731 3.45982 96.9757 3.45982C98.2491 3.45982 99.0712 4.28816 99.0712 5.56158V10H97.9956V5.80885C97.9956 4.93105 97.5073 4.4118 96.6604 4.4118C95.8073 4.4118 95.2077 5.04232 95.2077 5.91394V10H94.1321V5.6914C94.1321 4.91869 93.6128 4.4118 92.8154 4.4118C91.9623 4.4118 91.3442 5.07941 91.3442 5.96957V10H90.2686Z" fill="white"/>
</svg>
